<svg width="36" height="36" viewBox="0 0 36 36" fill="none" xmlns="http://www.w3.org/2000/svg">
<path d="M7.81323 19.4999H24.5682L17.2482 26.8199C16.6632 27.4049 16.6632 28.3649 17.2482 28.9499C17.8332 29.5349 18.7782 29.5349 19.3632 28.9499L29.2482 19.0649C29.8332 18.4799 29.8332 17.5349 29.2482 16.9499L19.3782 7.04993C19.098 6.76906 18.7175 6.61121 18.3207 6.61121C17.924 6.61121 17.5435 6.76906 17.2632 7.04993C16.6782 7.63493 16.6782 8.57993 17.2632 9.16493L24.5682 16.4999H7.81323C6.98823 16.4999 6.31323 17.1749 6.31323 17.9999C6.31323 18.8249 6.98823 19.4999 7.81323 19.4999Z" fill="#BBC8D4"/>
</svg>
