<svg width="36" height="36" viewBox="0 0 36 36" fill="none" xmlns="http://www.w3.org/2000/svg">
<path d="M28.1868 19.4999H11.4318L18.7518 26.8199C19.3368 27.4049 19.3368 28.3649 18.7518 28.9499C18.1668 29.5349 17.2218 29.5349 16.6368 28.9499L6.75177 19.0649C6.16677 18.4799 6.16677 17.5349 6.75177 16.9499L16.6218 7.04993C16.902 6.76906 17.2825 6.61121 17.6793 6.61121C18.076 6.61121 18.4565 6.76906 18.7368 7.04993C19.3218 7.63493 19.3218 8.57993 18.7368 9.16493L11.4318 16.4999H28.1868C29.0118 16.4999 29.6868 17.1749 29.6868 17.9999C29.6868 18.8249 29.0118 19.4999 28.1868 19.4999Z" fill="#25313C"/>
</svg>
