<svg width="24" height="24" viewBox="0 0 24 24" fill="none" xmlns="http://www.w3.org/2000/svg">
<g id="calendar-alt">
<mask id="mask0" mask-type="alpha" maskUnits="userSpaceOnUse" x="3" y="2" width="18" height="20">
<path id="calendar-alt_2" fill-rule="evenodd" clip-rule="evenodd" d="M3.71875 8.25H20.2812C20.5391 8.25 20.75 8.03906 20.75 7.78125V6.375C20.75 5.33984 19.9102 4.5 18.875 4.5H17V2.46875C17 2.21094 16.7891 2 16.5312 2H14.9688C14.7109 2 14.5 2.21094 14.5 2.46875V4.5H9.5V2.46875C9.5 2.21094 9.28906 2 9.03125 2H7.46875C7.21094 2 7 2.21094 7 2.46875V4.5H5.125C4.08984 4.5 3.25 5.33984 3.25 6.375V7.78125C3.25 8.03906 3.46094 8.25 3.71875 8.25ZM20.2812 9.5H3.71875C3.46094 9.5 3.25 9.71094 3.25 9.96875V20.125C3.25 21.1602 4.08984 22 5.125 22H18.875C19.9102 22 20.75 21.1602 20.75 20.125V9.96875C20.75 9.71094 20.5391 9.5 20.2812 9.5ZM8.25 17.4688C8.25 17.2109 8.03906 17 7.78125 17H6.21875C5.96094 17 5.75 17.2109 5.75 17.4688V19.0312C5.75 19.2891 5.96094 19.5 6.21875 19.5H7.78125C8.03906 19.5 8.25 19.2891 8.25 19.0312V17.4688ZM7.78125 12C8.03906 12 8.25 12.2109 8.25 12.4688V14.0312C8.25 14.2891 8.03906 14.5 7.78125 14.5H6.21875C5.96094 14.5 5.75 14.2891 5.75 14.0312V12.4688C5.75 12.2109 5.96094 12 6.21875 12H7.78125ZM13.25 17.4688C13.25 17.2109 13.0391 17 12.7812 17H11.2188C10.9609 17 10.75 17.2109 10.75 17.4688V19.0312C10.75 19.2891 10.9609 19.5 11.2188 19.5H12.7812C13.0391 19.5 13.25 19.2891 13.25 19.0312V17.4688ZM12.7812 12C13.0391 12 13.25 12.2109 13.25 12.4688V14.0312C13.25 14.2891 13.0391 14.5 12.7812 14.5H11.2188C10.9609 14.5 10.75 14.2891 10.75 14.0312V12.4688C10.75 12.2109 10.9609 12 11.2188 12H12.7812ZM18.25 17.4688C18.25 17.2109 18.0391 17 17.7812 17H16.2188C15.9609 17 15.75 17.2109 15.75 17.4688V19.0312C15.75 19.2891 15.9609 19.5 16.2188 19.5H17.7812C18.0391 19.5 18.25 19.2891 18.25 19.0312V17.4688ZM17.7812 12C18.0391 12 18.25 12.2109 18.25 12.4688V14.0312C18.25 14.2891 18.0391 14.5 17.7812 14.5H16.2188C15.9609 14.5 15.75 14.2891 15.75 14.0312V12.4688C15.75 12.2109 15.9609 12 16.2188 12H17.7812Z" fill="white"/>
</mask>
<g mask="url(#mask0)">
<g id="&#240;&#159;&#142;&#168; color">
<rect id="&#240;&#159;&#142;&#168; Color" width="24" height="24" fill="black"/>
</g>
</g>
</g>
</svg>
