<svg width="24" height="24" viewBox="0 0 24 24" fill="none" xmlns="http://www.w3.org/2000/svg">
<g id="hammer">
<mask id="mask0" mask-type="alpha" maskUnits="userSpaceOnUse" x="2" y="3" width="20" height="18">
<path id="hammer_2" fill-rule="evenodd" clip-rule="evenodd" d="M21.0514 9.04201L21.8372 9.82778C22.0542 10.0448 22.0542 10.3965 21.8379 10.6132L18.6951 13.7559C18.4781 13.9729 18.1264 13.9729 17.9094 13.7559L17.1236 12.9701C16.9066 12.7531 16.9066 12.4014 17.1236 12.1844L17.5163 11.7917L16.5129 10.7882C15.7729 10.9837 14.9538 10.8007 14.3736 10.2205L12.6674 8.51424C12.2504 8.09757 12.0163 7.53229 12.0163 6.94306V6.29201L8.87362 4.72083C11.0434 2.55139 14.5611 2.55139 16.7306 4.72083L18.3017 6.29201C18.882 6.87222 19.0649 7.69132 18.8695 8.43125L19.8729 9.43472L20.2656 9.04201C20.4826 8.825 20.8344 8.825 21.0514 9.04201ZM11.5396 8.88507C11.6441 9.02951 11.7531 9.17153 11.8816 9.3L13.5879 11.0063C13.7108 11.1292 13.8476 11.2319 13.9851 11.333L5.71667 20.1896C4.88751 21.0778 3.48751 21.1017 2.62883 20.2427C1.77015 19.3837 1.7941 17.984 2.68195 17.1549L11.5396 8.88507Z" fill="white"/>
</mask>
<g mask="url(#mask0)">
<g id="&#240;&#159;&#142;&#168; color">
<rect id="&#240;&#159;&#142;&#168; Color" width="24" height="24" fill="#1E4073"/>
</g>
</g>
</g>
</svg>
