<svg width="85" height="85" viewBox="0 0 85 85" fill="none" xmlns="http://www.w3.org/2000/svg">
<g filter="url(#filter0_d)">
<circle cx="42.5" cy="34.5" r="34.5" fill="#BBFEB5"/>
</g>
<path d="M36.875 21.375H33.125C32.1304 21.375 31.1766 21.7701 30.4733 22.4733C29.7701 23.1766 29.375 24.1304 29.375 25.125V47.625C29.375 48.6196 29.7701 49.5734 30.4733 50.2766C31.1766 50.9799 32.1304 51.375 33.125 51.375H51.875C52.8696 51.375 53.8234 50.9799 54.5266 50.2766C55.2299 49.5734 55.625 48.6196 55.625 47.625V25.125C55.625 24.1304 55.2299 23.1766 54.5266 22.4733C53.8234 21.7701 52.8696 21.375 51.875 21.375H48.125" stroke="black" stroke-width="2" stroke-linecap="round" stroke-linejoin="round"/>
<path d="M44.375 17.625H40.625C38.5539 17.625 36.875 19.3039 36.875 21.375C36.875 23.4461 38.5539 25.125 40.625 25.125H44.375C46.4461 25.125 48.125 23.4461 48.125 21.375C48.125 19.3039 46.4461 17.625 44.375 17.625Z" stroke="black" stroke-width="2" stroke-linecap="round" stroke-linejoin="round"/>
<path d="M46.25 32.625H41.5625C40.8166 32.625 40.1012 32.9213 39.5738 33.4488C39.0463 33.9762 38.75 34.6916 38.75 35.4375C38.75 36.1834 39.0463 36.8988 39.5738 37.4262C40.1012 37.9537 40.8166 38.25 41.5625 38.25H43.4375C44.1834 38.25 44.8988 38.5463 45.4262 39.0738C45.9537 39.6012 46.25 40.3166 46.25 41.0625C46.25 41.8084 45.9537 42.5238 45.4262 43.0512C44.8988 43.5787 44.1834 43.875 43.4375 43.875H38.75" stroke="black" stroke-width="2" stroke-linecap="round" stroke-linejoin="round"/>
<path d="M42.5 30.75V32.625M42.5 43.875V45.75V43.875Z" stroke="black" stroke-width="2" stroke-linecap="round" stroke-linejoin="round"/>
<defs>
<filter id="filter0_d" x="0" y="0" width="85" height="85" filterUnits="userSpaceOnUse" color-interpolation-filters="sRGB">
<feFlood flood-opacity="0" result="BackgroundImageFix"/>
<feColorMatrix in="SourceAlpha" type="matrix" values="0 0 0 0 0 0 0 0 0 0 0 0 0 0 0 0 0 0 127 0"/>
<feMorphology radius="2" operator="erode" in="SourceAlpha" result="effect1_dropShadow"/>
<feOffset dy="8"/>
<feGaussianBlur stdDeviation="5"/>
<feColorMatrix type="matrix" values="0 0 0 0 0.20875 0 0 0 0 0.261675 0 0 0 0 0.3 0 0 0 0.15 0"/>
<feBlend mode="normal" in2="BackgroundImageFix" result="effect1_dropShadow"/>
<feBlend mode="normal" in="SourceGraphic" in2="effect1_dropShadow" result="shape"/>
</filter>
</defs>
</svg>
