<svg width="85" height="85" viewBox="0 0 85 85" fill="none" xmlns="http://www.w3.org/2000/svg">
<g filter="url(#filter0_d)">
<circle cx="42.5" cy="34.5" r="34.5" fill="#B5C1FE"/>
</g>
<path d="M38 20.6667V50.6667M33 20.6667H51.3334C52.2174 20.6667 53.0653 21.0178 53.6904 21.643C54.3155 22.2681 54.6667 23.1159 54.6667 24V44C54.6667 44.884 54.3155 45.7319 53.6904 46.357C53.0653 46.9821 52.2174 47.3333 51.3334 47.3333H33C32.558 47.3333 32.1341 47.1577 31.8215 46.8452C31.509 46.5326 31.3334 46.1087 31.3334 45.6667V22.3333C31.3334 21.8913 31.509 21.4674 31.8215 21.1548C32.1341 20.8423 32.558 20.6667 33 20.6667V20.6667Z" stroke="black" stroke-width="2" stroke-linecap="round" stroke-linejoin="round"/>
<path d="M44.6667 27.3333H48.0001" stroke="black" stroke-width="2" stroke-linecap="round" stroke-linejoin="round"/>
<path d="M44.6667 34H48.0001" stroke="black" stroke-width="2" stroke-linecap="round" stroke-linejoin="round"/>
<defs>
<filter id="filter0_d" x="0" y="0" width="85" height="85" filterUnits="userSpaceOnUse" color-interpolation-filters="sRGB">
<feFlood flood-opacity="0" result="BackgroundImageFix"/>
<feColorMatrix in="SourceAlpha" type="matrix" values="0 0 0 0 0 0 0 0 0 0 0 0 0 0 0 0 0 0 127 0"/>
<feMorphology radius="2" operator="erode" in="SourceAlpha" result="effect1_dropShadow"/>
<feOffset dy="8"/>
<feGaussianBlur stdDeviation="5"/>
<feColorMatrix type="matrix" values="0 0 0 0 0.20875 0 0 0 0 0.261675 0 0 0 0 0.3 0 0 0 0.15 0"/>
<feBlend mode="normal" in2="BackgroundImageFix" result="effect1_dropShadow"/>
<feBlend mode="normal" in="SourceGraphic" in2="effect1_dropShadow" result="shape"/>
</filter>
</defs>
</svg>
