<svg width="24" height="24" viewBox="0 0 24 24" fill="none" xmlns="http://www.w3.org/2000/svg">
<path fill-rule="evenodd" clip-rule="evenodd" d="M2.06376 8.11637L10.4938 3.51637C11.0938 3.19637 11.8138 3.19637 12.4138 3.51637L21.9338 8.70637C22.2538 8.88637 22.4538 9.21637 22.4538 9.58637V15.9964C22.4538 16.5464 22.0038 16.9964 21.4538 16.9964C20.9038 16.9964 20.4538 16.5464 20.4538 15.9964V10.0864L12.4138 14.4764C11.8138 14.8064 11.0938 14.8064 10.4938 14.4764L2.06376 9.87637C1.37376 9.49637 1.37376 8.49637 2.06376 8.11637ZM4.45376 15.9864V13.1764L10.4938 16.4764C11.0938 16.8064 11.8138 16.8064 12.4138 16.4764L18.4538 13.1764V15.9864C18.4538 16.7164 18.0538 17.3964 17.4138 17.7464L12.4138 20.4764C11.8138 20.8064 11.0938 20.8064 10.4938 20.4764L5.49376 17.7464C4.85376 17.3964 4.45376 16.7164 4.45376 15.9864Z" fill="#1E4073"/>
</svg>
