<svg width="815" height="187" viewBox="0 0 815 187" fill="none" xmlns="http://www.w3.org/2000/svg">
<path d="M34.6794 35.6599C38.8477 35.6184 40.1808 30.0257 36.4794 28.1083L34.2234 26.9397C29.5728 24.5307 31.2857 17.5 36.5232 17.5H52.249H103.249H205.249H409.249H613.249H715.249H766.249H774.727C780.16 17.5 781.694 24.9456 776.703 27.093L774.228 28.1576C770.218 29.8829 771.478 35.8688 775.843 35.8318L800.808 35.6203C807.724 35.5617 812.609 42.3729 810.337 48.9051L799 81.5L785 118.5L765.473 179.547C764.148 183.689 760.298 186.5 755.949 186.5H57.9723C53.6604 186.5 49.8341 183.736 48.479 179.643L26.749 114L16 81.5L4.95807 49.0866C2.76165 42.639 7.51332 35.9302 14.3244 35.8624L34.6794 35.6599Z" fill="#1B2240"/>
<path d="M764.178 115.464L764.172 115.477L764.167 115.491L745.958 167.158C744.618 170.958 741.027 173.5 736.998 173.5H407.29H77.5007C73.5093 173.5 69.9435 171.005 68.5758 167.255L48.2847 111.625L48.2846 111.625L38.123 83.74L38.1213 83.7355L28.4921 58.0817C26.1735 51.9047 30.7028 45.3032 37.3004 45.2437L54.5639 45.0878C58.963 45.048 60.2678 39.0792 56.2865 37.2075C52.3746 35.3684 53.6852 29.5 58.0079 29.5H71.9217H120.135H216.563H409.417H602.272H698.699H746.913H753.86C758.307 29.5 759.466 35.6511 755.323 37.2687C751.066 38.9311 752.282 45.257 756.853 45.2218L778.342 45.0565C785.035 45.0051 789.681 51.7061 787.286 57.956L777.413 83.7188L777.407 83.7323L764.178 115.464Z" fill="#6C9CA9" stroke="white"/>
<path d="M316 25H490.888L493 53.7355L334.587 86L316 25Z" fill="#86121D"/>
<path d="M356.144 49.1202C355.974 49.718 355.749 50.5088 355.469 51.4924C355.207 52.4722 354.89 53.5724 354.52 54.793C354.168 56.0098 353.774 57.3259 353.341 58.7414C352.921 60.1359 352.468 61.5468 351.983 62.9741C351.515 64.3974 351.018 65.8095 350.491 67.2104C349.977 68.5902 349.461 69.8804 348.942 71.081C350.749 70.4692 352.424 69.5903 353.965 68.4443C355.506 67.2983 356.894 65.998 358.13 64.5431C359.379 63.0672 360.462 61.4942 361.378 59.824C362.308 58.1327 363.039 56.4417 363.572 54.751C364.118 53.0392 364.458 51.3745 364.593 49.7568C364.745 48.1352 364.668 46.6562 364.363 45.3196C364.104 44.1887 363.719 43.1767 363.208 42.2838C362.715 41.3869 362.096 40.6538 361.353 40.0845C360.627 39.5113 359.773 39.1296 358.792 38.9393C357.811 38.749 356.72 38.7911 355.521 39.0655C354.407 39.3203 353.31 39.6884 352.23 40.1699C351.163 40.6303 350.157 41.1581 349.211 41.7531C348.265 42.3481 347.412 42.9941 346.652 43.6909C345.905 44.3667 345.288 45.0579 344.8 45.7645C344.287 46.6753 343.852 47.5684 343.493 48.4439C343.151 49.3154 342.792 50.1099 342.415 50.8272C342.055 51.5406 341.627 52.1525 341.131 52.6627C340.635 53.173 339.992 53.5183 339.204 53.6986C337.73 54.0357 336.845 53.5531 336.547 52.2508C336.359 51.4283 336.422 50.4851 336.738 49.4211C337.05 48.34 337.571 47.229 338.302 46.0881C339.046 44.9261 339.971 43.7678 341.077 42.6131C342.197 41.4373 343.47 40.3436 344.898 39.3318C346.321 38.3029 347.879 37.3875 349.571 36.5857C351.263 35.784 353.051 35.1675 354.936 34.7363C357.129 34.2345 359.114 34.123 360.891 34.4018C362.668 34.6805 364.219 35.2724 365.544 36.1775C366.882 37.0615 367.985 38.2158 368.852 39.6403C369.736 41.061 370.382 42.6624 370.789 44.4445C371.197 46.2266 371.316 48.1649 371.146 50.2595C370.993 52.3501 370.541 54.4731 369.79 56.6285C369.056 58.78 368.017 60.9019 366.675 62.9942C365.349 65.0826 363.711 67.0261 361.76 68.8248C359.827 70.6195 357.584 72.2055 355.032 73.5828C352.497 74.9561 349.653 76.0034 346.5 76.7246C345.815 76.8814 345.224 76.7821 344.728 76.4268C344.236 76.0885 343.917 75.6024 343.772 74.9684C343.659 74.4715 343.634 73.9721 343.7 73.4702C343.766 72.9684 343.89 72.489 344.074 72.0322L349.834 48.616C350.155 47.7313 350.502 47.0027 350.876 46.4302C351.267 45.8539 351.639 45.3902 351.991 45.0391C352.361 44.684 352.701 44.435 353.011 44.292C353.317 44.1318 353.555 44.0322 353.727 43.993C354.498 43.8166 355.097 43.9139 355.525 44.2849C355.952 44.656 356.236 45.1499 356.377 45.7668C356.491 46.2637 356.525 46.806 356.479 47.3935C356.433 47.9811 356.321 48.5566 356.144 49.1202ZM384.683 51.0035C384.594 51.006 384.515 51.015 384.446 51.0307C384.377 51.0464 384.3 51.064 384.215 51.0836C383.564 51.2326 382.985 51.5003 382.478 51.8866C381.971 52.273 381.527 52.7353 381.145 53.2734C380.777 53.7905 380.465 54.3578 380.209 54.9752C379.971 55.5888 379.767 56.1944 379.597 56.7923C379.423 57.373 379.289 57.9267 379.193 58.4536C379.114 58.9765 379.06 59.4125 379.032 59.7616C379.561 59.316 380.098 58.8236 380.642 58.2844C381.203 57.7413 381.725 57.2252 382.208 56.736C382.691 56.2468 383.105 55.8095 383.45 55.4241C383.811 55.0348 384.066 54.7692 384.214 54.6271C384.875 53.971 385.304 53.4039 385.502 52.926C385.695 52.431 385.756 52.0293 385.686 51.7208C385.627 51.4638 385.494 51.2778 385.288 51.1627C385.098 51.0438 384.897 50.9907 384.683 51.0035ZM384.797 47.2448C386.219 46.9194 387.36 47.0191 388.22 47.5438C389.079 48.0685 389.648 48.9392 389.926 50.1558C390.091 50.8755 390.075 51.6725 389.878 52.547C389.681 53.4215 389.214 54.3758 388.477 55.41C387.736 56.427 386.684 57.5423 385.321 58.7558C383.971 59.9482 382.228 61.2394 380.094 62.6293C380.293 63.1066 380.649 63.4399 381.161 63.6293C381.669 63.8016 382.292 63.8034 383.029 63.6349C383.817 63.4546 384.631 63.1511 385.471 62.7245C386.324 62.2768 387.147 61.7731 387.939 61.2134C388.747 60.6497 389.524 60.0662 390.27 59.4629C391.012 58.8424 391.673 58.2672 392.255 57.7374C392.855 57.2036 393.346 56.7487 393.728 56.3726C394.128 55.9926 394.398 55.7507 394.536 55.6468C394.667 55.5088 394.79 55.4174 394.906 55.3728C395.039 55.3244 395.157 55.2883 395.26 55.2648C395.466 55.2178 395.649 55.23 395.81 55.3014C395.966 55.3558 396.103 55.4417 396.22 55.5591C396.35 55.6556 396.45 55.777 396.52 55.9234C396.585 56.0526 396.63 56.1686 396.654 56.2714C396.689 56.4257 396.715 56.6181 396.732 56.8487C396.744 57.0621 396.671 57.3314 396.511 57.6566C396.445 57.7618 396.206 58.0598 395.795 58.5505C395.402 59.0372 394.878 59.6258 394.225 60.3163C393.571 61.0067 392.797 61.7609 391.902 62.5787C391.021 63.3754 390.061 64.145 389.022 64.8874C388.001 65.6259 386.909 66.2905 385.746 66.8812C384.587 67.489 383.407 67.9301 382.208 68.2045C381.18 68.4397 380.218 68.4524 379.322 68.2425C378.444 68.0287 377.645 67.6523 376.927 67.1134C376.226 66.5705 375.63 65.8955 375.138 65.0882C374.647 64.2809 374.292 63.3975 374.072 62.4379C373.904 61.7011 373.865 60.8624 373.957 59.9219C374.044 58.9642 374.26 57.9771 374.605 56.9606C374.949 55.9441 375.419 54.9259 376.016 53.906C376.625 52.865 377.352 51.9052 378.197 51.0267C379.042 50.1482 380.01 49.3766 381.103 48.712C382.212 48.0435 383.443 47.5544 384.797 47.2448ZM397.491 47.6137C397.666 46.7984 397.969 46.1521 398.4 45.6747C398.832 45.1972 399.296 44.9017 399.793 44.788C400.205 44.6939 400.608 44.7638 401.004 44.9978C401.397 45.2146 401.659 45.6143 401.793 46.1969C401.844 46.4197 401.873 46.6655 401.88 46.9343C401.888 47.2031 401.856 47.4988 401.786 47.8215C402.053 47.2554 402.481 46.6436 403.07 45.9859C403.655 45.3112 404.322 44.6807 405.071 44.0945C405.834 43.4872 406.632 42.9532 407.464 42.4923C408.313 42.0275 409.141 41.703 409.946 41.5188C410.854 41.311 411.659 41.3613 412.361 41.6696C413.076 41.9569 413.553 42.6232 413.792 43.6684C413.933 44.2853 413.986 44.9494 413.95 45.6608C413.914 46.3722 413.819 47.0974 413.663 47.8362C413.525 48.5711 413.342 49.3073 413.113 50.0447C412.899 50.761 412.676 51.4431 412.446 52.0909C412.215 52.7386 412 53.3377 411.802 53.8881C411.616 54.4174 411.473 54.8558 411.372 55.2035C411.212 55.5286 411.173 55.8711 411.256 56.2309C411.287 56.368 411.357 56.4782 411.467 56.5614C411.576 56.6446 411.725 56.6646 411.913 56.6215C412.033 56.5941 412.168 56.5541 412.319 56.5017C412.465 56.4322 412.632 56.2948 412.819 56.0896C413.666 55.5353 414.511 54.8913 415.353 54.1577C416.212 53.4202 417.022 52.6668 417.784 51.8975C418.542 51.111 419.224 50.3508 419.832 49.6168C420.452 48.8617 420.958 48.196 421.349 47.6196C421.459 47.4683 421.577 47.3513 421.702 47.2685C421.827 47.1858 421.95 47.1307 422.07 47.1032C422.361 47.0366 422.609 47.097 422.815 47.2845C423.037 47.4681 423.187 47.7312 423.266 48.0739C423.387 48.6051 423.351 49.2355 423.157 49.965C422.981 50.6906 422.597 51.4185 422.007 52.1486C421.191 53.0746 420.438 53.923 419.749 54.6937C419.077 55.4606 418.371 56.199 417.632 56.9091C416.906 57.5981 416.106 58.2771 415.231 58.946C414.369 59.594 413.33 60.2554 412.114 60.9302C411.7 61.1692 411.313 61.3661 410.951 61.5209C410.607 61.6718 410.281 61.7825 409.972 61.853C409.064 62.0608 408.339 61.9652 407.797 61.5663C407.268 61.1463 406.9 60.4822 406.692 59.574C406.665 59.4541 406.639 59.3427 406.616 59.2399C406.605 59.116 406.593 58.9836 406.579 58.8426C406.492 58.3035 406.495 57.6896 406.59 57.0007C406.702 56.3079 406.853 55.5881 407.043 54.8414C407.25 54.0908 407.476 53.3449 407.721 52.6036C407.962 51.8451 408.179 51.1374 408.371 50.4803C408.577 49.8022 408.738 49.2063 408.855 48.6927C408.972 48.179 408.997 47.7766 408.931 47.4853C408.872 47.2282 408.746 47.0317 408.552 46.8956C408.372 46.7385 408.136 46.6932 407.845 46.7599C406.748 47.0108 405.778 47.5754 404.933 48.4539C404.105 49.3285 403.372 50.3436 402.735 51.4992C402.094 52.6376 401.535 53.8204 401.058 55.0474C400.582 56.2745 400.165 57.3705 399.809 58.3356C399.596 58.9795 399.418 59.6603 399.275 60.3781C399.146 61.0748 398.992 61.7412 398.813 62.3772C398.63 62.9961 398.383 63.5306 398.071 63.9806C397.78 64.4438 397.343 64.742 396.761 64.8753C396.161 65.0125 395.647 64.9318 395.218 64.6332C394.789 64.3347 394.512 63.9112 394.386 63.3629C394.32 63.0716 394.332 62.5729 394.423 61.8669C394.514 61.1608 394.65 60.3363 394.831 59.3933C395.012 58.4503 395.222 57.4375 395.461 56.3549C395.713 55.2513 395.961 54.1668 396.204 53.1014C396.461 52.0149 396.705 50.9943 396.937 50.0395C397.17 49.0847 397.354 48.2761 397.491 47.6137ZM443.65 47.414C442.588 48.6847 441.479 49.7498 440.323 50.6092C439.164 51.4516 437.804 52.0511 436.245 52.4078C435.731 52.5254 435.212 52.5448 434.689 52.4661C434.166 52.3874 433.465 52.1963 432.584 51.8929C431.794 53.6424 430.913 55.034 429.941 56.0678C428.987 57.0976 427.893 57.7536 426.659 58.0358C426.059 58.173 425.46 58.193 424.86 58.0956C424.265 58.0154 423.713 57.8082 423.203 57.4739C422.694 57.1396 422.238 56.6848 421.836 56.1096C421.451 55.5305 421.163 54.8211 420.971 53.9814C420.736 52.9533 420.594 51.8226 420.547 50.5893C420.512 49.3349 420.528 48.105 420.595 46.8996C420.662 45.6942 420.74 44.5764 420.829 43.5463C420.935 42.5122 421.017 41.6909 421.077 41.0823C421.255 40.2842 421.565 39.6721 422.009 39.2461C422.466 38.799 422.942 38.5186 423.439 38.4049C423.662 38.354 423.895 38.3459 424.137 38.3806C424.393 38.3942 424.63 38.4481 424.85 38.542C425.07 38.636 425.261 38.7635 425.425 38.9245C425.588 39.0856 425.695 39.2775 425.746 39.5003C425.789 39.6888 425.792 39.8594 425.755 40.0121C425.686 40.8934 425.583 41.8636 425.447 42.9227C425.323 43.9606 425.219 45.0033 425.134 46.0506C425.049 47.0978 425.003 48.1182 424.996 49.1116C425.002 50.084 425.093 50.9557 425.27 51.7268C425.297 51.8467 425.352 52.0056 425.433 52.2034C425.51 52.384 425.596 52.5627 425.691 52.7394C425.781 52.899 425.885 53.0376 426.002 53.1551C426.115 53.2554 426.223 53.2938 426.326 53.2703C426.772 53.1684 427.212 52.8062 427.646 52.1839C428.081 51.5615 428.524 50.7389 428.975 49.716C429.403 48.9869 429.774 48.1629 430.087 47.2438C430.413 46.3037 430.7 45.3543 430.95 44.3956C431.216 43.433 431.461 42.4934 431.684 41.5768C431.921 40.6392 432.161 39.7997 432.407 39.0584C432.665 38.2961 432.946 37.6727 433.25 37.1885C433.55 36.6871 433.906 36.3893 434.317 36.2952C435.02 36.1345 435.569 36.2522 435.967 36.6482C436.36 37.0271 436.629 37.5335 436.774 38.1675C436.939 38.8872 436.97 39.5744 436.867 40.229C436.781 40.8797 436.616 41.5757 436.371 42.317C436.122 43.0412 435.813 43.8601 435.445 44.7738C435.09 45.6664 434.719 46.725 434.332 47.9496C434.689 48.2467 435.158 48.3286 435.741 48.1953C436.358 48.0542 436.974 47.8321 437.59 47.5289C438.223 47.2218 438.834 46.8567 439.422 46.4336C440.007 45.9933 440.571 45.5036 441.115 44.9644C441.672 44.4042 442.195 43.8156 442.685 43.1986C442.907 42.9856 443.129 42.8536 443.352 42.8027C443.661 42.7321 443.94 42.8124 444.192 43.0434C444.46 43.2705 444.643 43.5983 444.741 44.0267C444.847 44.4893 444.826 45.0262 444.677 45.6372C444.524 46.2312 444.182 46.8234 443.65 47.414ZM451.758 35.6593C451.669 35.6618 451.59 35.6709 451.521 35.6865C451.453 35.7022 451.376 35.7199 451.29 35.7395C450.639 35.8884 450.06 36.1561 449.553 36.5425C449.046 36.9289 448.602 37.3911 448.22 37.9293C447.852 38.4464 447.54 39.0136 447.284 39.6311C447.046 40.2446 446.842 40.8503 446.672 41.4481C446.498 42.0288 446.364 42.5826 446.268 43.1094C446.189 43.6323 446.136 44.0683 446.107 44.4174C446.636 43.9718 447.173 43.4794 447.717 42.9402C448.278 42.3972 448.8 41.881 449.283 41.3918C449.766 40.9026 450.18 40.4653 450.525 40.08C450.886 39.6907 451.141 39.425 451.289 39.283C451.95 38.6268 452.38 38.0598 452.577 37.5819C452.77 37.0868 452.832 36.6851 452.761 36.3767C452.702 36.1196 452.569 35.9336 452.363 35.8186C452.173 35.6996 451.972 35.6466 451.758 35.6593ZM451.872 31.9006C453.295 31.5753 454.435 31.6749 455.295 32.1996C456.154 32.7243 456.723 33.595 457.001 34.8116C457.166 35.5313 457.15 36.3284 456.953 37.2029C456.756 38.0773 456.29 39.0317 455.552 40.0658C454.811 41.0829 453.759 42.1981 452.396 43.4116C451.046 44.6041 449.303 45.8952 447.169 47.2851C447.368 47.7624 447.724 48.0958 448.236 48.2852C448.744 48.4574 449.367 48.4593 450.104 48.2907C450.892 48.1104 451.706 47.8069 452.546 47.3803C453.4 46.9327 454.222 46.429 455.014 45.8692C455.822 45.3055 456.6 44.722 457.345 44.1187C458.087 43.4982 458.749 42.9231 459.331 42.3932C459.93 41.8594 460.421 41.4045 460.804 41.0284C461.204 40.6484 461.473 40.4065 461.611 40.3027C461.742 40.1646 461.865 40.0733 461.981 40.0287C462.115 39.9802 462.233 39.9442 462.335 39.9207C462.541 39.8736 462.724 39.8858 462.885 39.9573C463.041 40.0116 463.178 40.0975 463.295 40.215C463.426 40.3114 463.525 40.4328 463.595 40.5792C463.661 40.7084 463.705 40.8245 463.729 40.9273C463.764 41.0815 463.79 41.2739 463.807 41.5045C463.819 41.718 463.746 41.9873 463.586 42.3124C463.52 42.4177 463.281 42.7157 462.871 43.2063C462.477 43.693 461.954 44.2816 461.3 44.9721C460.647 45.6626 459.872 46.4167 458.977 47.2345C458.096 48.0313 457.136 48.8008 456.098 49.5433C455.076 50.2818 453.984 50.9464 452.821 51.537C451.662 52.1448 450.482 52.586 449.283 52.8603C448.255 53.0955 447.293 53.1082 446.397 52.8983C445.519 52.6845 444.721 52.3082 444.002 51.7692C443.301 51.2264 442.705 50.5513 442.214 49.7441C441.722 48.9368 441.367 48.0534 441.148 47.0938C440.979 46.3569 440.94 45.5183 441.032 44.5777C441.119 43.62 441.335 42.6329 441.68 41.6165C442.024 40.6 442.495 39.5818 443.091 38.5618C443.7 37.5208 444.427 36.561 445.272 35.6825C446.117 34.804 447.086 34.0325 448.178 33.3679C449.287 32.6994 450.519 32.2103 451.872 31.9006ZM469.566 31.7751C470.14 31.2109 470.739 30.6772 471.363 30.1737C472.004 29.6664 472.632 29.2163 473.245 28.8236C473.855 28.4137 474.444 28.0716 475.012 27.7973C475.594 27.5019 476.124 27.2994 476.604 27.1896C477.375 27.0132 478.009 27.0665 478.507 27.3494C479.018 27.6112 479.373 28.1791 479.573 29.053C479.616 29.2415 479.654 29.4491 479.688 29.6758C479.718 29.8853 479.735 30.1159 479.738 30.3676C479.755 30.8327 479.617 31.4141 479.326 32.1119C479.035 32.8096 478.672 33.5507 478.239 34.3351C477.822 35.1156 477.356 35.9165 476.841 36.7376C476.339 37.5377 475.869 38.2852 475.433 38.98C475.01 39.6538 474.658 40.2394 474.375 40.7369C474.109 41.2305 473.994 41.5544 474.029 41.7086C474.06 41.8457 474.09 41.938 474.119 41.9855C474.148 42.033 474.231 42.041 474.368 42.0097C475.203 41.4039 476.124 40.6974 477.129 39.8904C478.148 39.0623 479.156 38.2276 480.154 37.3862C481.151 36.5449 482.093 35.7345 482.979 34.9549C483.86 34.1581 484.605 33.4737 485.214 32.9018C485.348 32.7808 485.487 32.677 485.629 32.5903C485.785 32.4826 485.932 32.413 486.069 32.3817C486.377 32.3111 486.658 32.3551 486.91 32.5137C487.163 32.6723 487.328 32.9229 487.407 33.2657C487.497 33.6598 487.43 34.1531 487.204 34.7455C486.993 35.3169 486.555 35.967 485.892 36.6956C485.379 37.2098 484.8 37.793 484.156 38.4453C483.525 39.0765 482.857 39.7432 482.152 40.4454C481.46 41.1266 480.749 41.8031 480.02 42.475C479.307 43.1429 478.608 43.7536 477.923 44.307C477.238 44.8604 476.581 45.3354 475.95 45.7321C475.333 46.1077 474.776 46.3524 474.279 46.4661C473.096 46.7365 472.141 46.6576 471.412 46.2294C470.7 45.7972 470.242 45.1355 470.038 44.2445C470.007 44.1074 469.992 44.0026 469.993 43.9302C469.94 43.1488 469.997 42.3696 470.161 41.5925C470.326 40.8155 470.542 40.0629 470.808 39.3348C471.074 38.6068 471.366 37.909 471.682 37.2416C471.994 36.5571 472.273 35.9252 472.519 35.346C472.779 34.7457 472.979 34.2039 473.121 33.7206C473.263 33.2374 473.293 32.8158 473.211 32.4559C473.191 32.3703 473.154 32.2885 473.1 32.2107C473.047 32.1328 472.96 32.1076 472.84 32.1351C472.634 32.1821 472.309 32.3376 471.864 32.6016C471.437 32.8617 470.987 33.181 470.515 33.5595C470.042 33.9381 469.605 34.3536 469.204 34.806C468.799 35.2414 468.536 35.671 468.417 36.0951C468.253 36.6376 468.075 37.3184 467.883 38.1376C467.692 38.9567 467.492 39.814 467.282 40.7096C467.089 41.6012 466.903 42.4822 466.723 43.3528C466.544 44.2233 466.39 44.9708 466.263 45.595C466.171 46.139 465.998 46.6472 465.746 47.1197C465.51 47.5883 465.227 48.0048 464.896 48.3691C464.564 48.7335 464.21 49.0398 463.834 49.2881C463.459 49.5364 463.099 49.6997 462.756 49.7781C462.362 49.8683 462.022 49.838 461.735 49.6872C461.465 49.5326 461.277 49.2239 461.171 48.7612C461.128 48.5727 461.101 48.3355 461.09 48.0496C461.092 47.7426 461.148 47.3962 461.258 47.0104C461.433 46.3572 461.596 45.6527 461.748 44.8967C461.917 44.1368 462.107 43.2728 462.318 42.3049C462.526 41.3197 462.766 40.2009 463.038 38.9485C463.324 37.675 463.664 36.2085 464.06 34.5492C463.773 34.3984 463.511 34.197 463.273 33.9449C463.048 33.6718 462.885 33.3124 462.783 32.8669C462.689 32.4556 462.694 32.0848 462.799 31.7543C462.9 31.4066 463.074 31.1052 463.322 30.8501C463.57 30.595 463.873 30.3815 464.231 30.2095C464.601 30.0166 465.001 29.8711 465.429 29.7731C465.875 29.6712 466.33 29.6121 466.795 29.5959C467.256 29.5625 467.676 29.5837 468.054 29.6595C468.449 29.7314 468.783 29.8533 469.057 30.0251C469.331 30.1969 469.501 30.4284 469.568 30.7197C469.579 30.7711 469.578 30.8436 469.563 30.9371C469.549 31.0306 469.527 31.1347 469.499 31.2493C469.489 31.3599 469.476 31.462 469.461 31.5555C469.447 31.649 469.445 31.7215 469.457 31.7729C469.465 31.8072 469.477 31.8223 469.494 31.8184L469.52 31.8125L469.566 31.7751Z" fill="white"/>
<g filter="url(#filter0_d)">
<path d="M111.648 160V87.824H101.04V70.664H140.144V87.824H129.536V160H111.648ZM175.346 160.832C168.136 160.832 162.658 158.648 158.914 154.28C155.17 149.843 153.298 143.637 153.298 135.664V93.128C153.298 85.432 155.17 79.6427 158.914 75.76C162.658 71.808 168.136 69.832 175.346 69.832C182.557 69.832 188.034 71.808 191.778 75.76C195.522 79.6427 197.394 85.432 197.394 93.128V135.664C197.394 143.707 195.522 149.912 191.778 154.28C188.034 158.648 182.557 160.832 175.346 160.832ZM175.346 144.4C176.941 144.4 178.016 143.707 178.57 142.32C179.125 140.933 179.402 138.992 179.402 136.496V92.816C179.402 90.8747 179.125 89.3147 178.57 88.136C178.085 86.888 177.045 86.264 175.45 86.264C172.469 86.264 170.978 88.5173 170.978 93.024V136.6C170.978 139.165 171.29 141.107 171.914 142.424C172.538 143.741 173.682 144.4 175.346 144.4ZM234.765 160.832C227.554 160.832 222.077 158.648 218.333 154.28C214.589 149.843 212.717 143.637 212.717 135.664V93.128C212.717 85.432 214.589 79.6427 218.333 75.76C222.077 71.808 227.554 69.832 234.765 69.832C241.975 69.832 247.453 71.808 251.197 75.76C254.941 79.6427 256.813 85.432 256.813 93.128V135.664C256.813 143.707 254.941 149.912 251.197 154.28C247.453 158.648 241.975 160.832 234.765 160.832ZM234.765 144.4C236.359 144.4 237.434 143.707 237.989 142.32C238.543 140.933 238.821 138.992 238.821 136.496V92.816C238.821 90.8747 238.543 89.3147 237.989 88.136C237.503 86.888 236.463 86.264 234.869 86.264C231.887 86.264 230.397 88.5173 230.397 93.024V136.6C230.397 139.165 230.709 141.107 231.333 142.424C231.957 143.741 233.101 144.4 234.765 144.4ZM272.863 160V70.664H290.751V144.816H309.159V160H272.863ZM356.254 160V70.664H374.142V144.816H392.55V160H356.254ZM405.598 160V70.664H422.862V160H405.598ZM438.832 70.664H463.064C469.581 70.664 474.296 72.2587 477.208 75.448C480.189 78.6373 481.68 83.8373 481.68 91.048V95C481.68 103.528 478.629 108.624 472.528 110.288C476.272 111.259 478.907 113.512 480.432 117.048C481.957 120.584 482.72 125.264 482.72 131.088C482.72 140.587 481.299 147.797 478.456 152.72C475.613 157.573 470.483 160 463.064 160H438.832V70.664ZM459.944 104.256C461.469 104.256 462.509 103.701 463.064 102.592C463.619 101.413 463.896 99.784 463.896 97.704V88.76C463.896 85.848 462.613 84.392 460.048 84.392H456.304V104.256H459.944ZM458.072 144.296C462.717 144.296 465.04 142.077 465.04 137.64V126.512C465.04 123.808 464.624 121.763 463.792 120.376C463.029 118.989 461.643 118.296 459.632 118.296H456.304V144.192L458.072 144.296ZM497.438 70.664H524.894C529.262 70.664 532.624 71.6693 534.982 73.68C537.408 75.6213 539.038 78.3947 539.87 82C540.702 85.536 541.118 90.0773 541.118 95.624C541.118 100.685 540.459 104.637 539.142 107.48C537.824 110.323 535.536 112.299 532.278 113.408C534.982 113.963 536.923 115.315 538.102 117.464C539.35 119.613 539.974 122.525 539.974 126.2L539.766 160H522.294V125.056C522.294 122.56 521.808 120.965 520.838 120.272C519.867 119.579 518.099 119.232 515.534 119.232V160H497.438V70.664ZM519.902 103.736C522.398 103.736 523.646 101.032 523.646 95.624C523.646 93.2667 523.542 91.4987 523.334 90.32C523.126 89.1413 522.744 88.344 522.19 87.928C521.635 87.4427 520.838 87.2 519.798 87.2H515.638V103.736H519.902ZM553.448 160L562.08 70.664H592.344L600.872 160H583.92L582.672 145.544H571.856L570.816 160H553.448ZM573.208 131.296H581.32L577.368 85.848H576.536L573.208 131.296ZM615.157 70.664H642.613C646.981 70.664 650.343 71.6693 652.701 73.68C655.127 75.6213 656.757 78.3947 657.589 82C658.421 85.536 658.837 90.0773 658.837 95.624C658.837 100.685 658.178 104.637 656.861 107.48C655.543 110.323 653.255 112.299 649.997 113.408C652.701 113.963 654.642 115.315 655.821 117.464C657.069 119.613 657.693 122.525 657.693 126.2L657.485 160H640.013V125.056C640.013 122.56 639.527 120.965 638.557 120.272C637.586 119.579 635.818 119.232 633.253 119.232V160H615.157V70.664ZM637.621 103.736C640.117 103.736 641.365 101.032 641.365 95.624C641.365 93.2667 641.261 91.4987 641.053 90.32C640.845 89.1413 640.463 88.344 639.909 87.928C639.354 87.4427 638.557 87.2 637.517 87.2H633.357V103.736H637.621ZM684.375 160V130.568L670.127 70.664H687.807L692.799 100.928L697.791 70.664H715.471L701.223 130.568V160H684.375Z" fill="#C59411"/>
<path d="M111.648 160H110.648V161H111.648V160ZM111.648 87.824H112.648V86.824H111.648V87.824ZM101.04 87.824H100.04V88.824H101.04V87.824ZM101.04 70.664V69.664H100.04V70.664H101.04ZM140.144 70.664H141.144V69.664H140.144V70.664ZM140.144 87.824V88.824H141.144V87.824H140.144ZM129.536 87.824V86.824H128.536V87.824H129.536ZM129.536 160V161H130.536V160H129.536ZM112.648 160V87.824H110.648V160H112.648ZM111.648 86.824H101.04V88.824H111.648V86.824ZM102.04 87.824V70.664H100.04V87.824H102.04ZM101.04 71.664H140.144V69.664H101.04V71.664ZM139.144 70.664V87.824H141.144V70.664H139.144ZM140.144 86.824H129.536V88.824H140.144V86.824ZM128.536 87.824V160H130.536V87.824H128.536ZM129.536 159H111.648V161H129.536V159ZM158.914 154.28L158.15 154.925L158.155 154.931L158.914 154.28ZM158.914 75.76L159.634 76.4542L159.64 76.4477L158.914 75.76ZM191.778 75.76L191.052 76.4478L191.059 76.4541L191.778 75.76ZM191.778 154.28L192.538 154.931L192.538 154.931L191.778 154.28ZM178.57 142.32L179.499 142.691L179.499 142.691L178.57 142.32ZM178.57 88.136L177.638 88.4984L177.651 88.5306L177.666 88.5618L178.57 88.136ZM171.914 142.424L172.818 141.996L172.818 141.996L171.914 142.424ZM175.346 159.832C168.348 159.832 163.181 157.721 159.674 153.629L158.155 154.931C162.136 159.575 167.924 161.832 175.346 161.832V159.832ZM159.679 153.635C156.135 149.436 154.298 143.489 154.298 135.664H152.298C152.298 143.785 154.205 150.25 158.15 154.925L159.679 153.635ZM154.298 135.664V93.128H152.298V135.664H154.298ZM154.298 93.128C154.298 85.5802 156.134 80.0836 159.634 76.4541L158.195 75.0659C154.206 79.2018 152.298 85.2838 152.298 93.128H154.298ZM159.64 76.4477C163.14 72.7538 168.317 70.832 175.346 70.832V68.832C167.954 68.832 162.177 70.8622 158.188 75.0722L159.64 76.4477ZM175.346 70.832C182.376 70.832 187.553 72.7538 191.052 76.4477L192.504 75.0722C188.516 70.8622 182.739 68.832 175.346 68.832V70.832ZM191.059 76.4541C194.558 80.0836 196.394 85.5802 196.394 93.128H198.394C198.394 85.2838 196.486 79.2018 192.498 75.0659L191.059 76.4541ZM196.394 93.128V135.664H198.394V93.128H196.394ZM196.394 135.664C196.394 143.562 194.556 149.503 191.019 153.629L192.538 154.931C196.489 150.321 198.394 143.851 198.394 135.664H196.394ZM191.019 153.629C187.512 157.721 182.345 159.832 175.346 159.832V161.832C182.769 161.832 188.557 159.575 192.538 154.931L191.019 153.629ZM175.346 145.4C176.289 145.4 177.156 145.194 177.891 144.72C178.63 144.243 179.158 143.544 179.499 142.691L177.642 141.949C177.428 142.483 177.141 142.823 176.806 143.04C176.466 143.259 175.999 143.4 175.346 143.4V145.4ZM179.499 142.691C180.122 141.133 180.402 139.045 180.402 136.496H178.402C178.402 138.939 178.128 140.733 177.642 141.949L179.499 142.691ZM180.402 136.496V92.816H178.402V136.496H180.402ZM180.402 92.816C180.402 90.7934 180.116 89.0711 179.475 87.7102L177.666 88.5618C178.134 89.5583 178.402 90.9559 178.402 92.816H180.402ZM179.502 87.7735C179.188 86.9656 178.671 86.3126 177.941 85.8745C177.224 85.4443 176.373 85.264 175.45 85.264V87.264C176.122 87.264 176.589 87.3957 176.912 87.5895C177.222 87.7754 177.467 88.0584 177.638 88.4984L179.502 87.7735ZM175.45 85.264C173.665 85.264 172.214 85.9631 171.262 87.4023C170.358 88.7689 169.978 90.6921 169.978 93.024H171.978C171.978 90.8492 172.344 89.3924 172.93 88.5057C173.469 87.6915 174.254 87.264 175.45 87.264V85.264ZM169.978 93.024V136.6H171.978V93.024H169.978ZM169.978 136.6C169.978 139.217 170.292 141.335 171.011 142.852L172.818 141.996C172.289 140.878 171.978 139.113 171.978 136.6H169.978ZM171.011 142.852C171.4 143.675 171.975 144.331 172.741 144.773C173.5 145.209 174.384 145.4 175.346 145.4V143.4C174.645 143.4 174.125 143.261 173.739 143.039C173.362 142.822 173.052 142.491 172.818 141.996L171.011 142.852ZM218.333 154.28L217.568 154.925L217.573 154.931L218.333 154.28ZM218.333 75.76L219.052 76.4542L219.058 76.4477L218.333 75.76ZM251.197 75.76L250.471 76.4478L250.477 76.4541L251.197 75.76ZM251.197 154.28L251.956 154.931L251.956 154.931L251.197 154.28ZM237.989 142.32L238.917 142.691L238.917 142.691L237.989 142.32ZM237.989 88.136L237.056 88.4984L237.069 88.5306L237.084 88.5618L237.989 88.136ZM231.333 142.424L232.236 141.996L232.236 141.996L231.333 142.424ZM234.765 159.832C227.766 159.832 222.599 157.721 219.092 153.629L217.573 154.931C221.554 159.575 227.342 161.832 234.765 161.832V159.832ZM219.097 153.635C215.553 149.436 213.717 143.489 213.717 135.664H211.717C211.717 143.785 213.624 150.25 217.568 154.925L219.097 153.635ZM213.717 135.664V93.128H211.717V135.664H213.717ZM213.717 93.128C213.717 85.5802 215.553 80.0836 219.052 76.4541L217.613 75.0659C213.624 79.2018 211.717 85.2838 211.717 93.128H213.717ZM219.058 76.4477C222.558 72.7538 227.735 70.832 234.765 70.832V68.832C227.372 68.832 221.595 70.8622 217.607 75.0722L219.058 76.4477ZM234.765 70.832C241.794 70.832 246.971 72.7538 250.471 76.4477L251.922 75.0722C247.934 70.8622 242.157 68.832 234.765 68.832V70.832ZM250.477 76.4541C253.976 80.0836 255.813 85.5802 255.813 93.128H257.813C257.813 85.2838 255.905 79.2018 251.916 75.0659L250.477 76.4541ZM255.813 93.128V135.664H257.813V93.128H255.813ZM255.813 135.664C255.813 143.562 253.974 149.503 250.437 153.629L251.956 154.931C255.907 150.321 257.813 143.851 257.813 135.664H255.813ZM250.437 153.629C246.93 157.721 241.763 159.832 234.765 159.832V161.832C242.187 161.832 247.975 159.575 251.956 154.931L250.437 153.629ZM234.765 145.4C235.707 145.4 236.574 145.194 237.309 144.72C238.048 144.243 238.576 143.544 238.917 142.691L237.06 141.949C236.846 142.483 236.56 142.823 236.224 143.04C235.884 143.259 235.417 143.4 234.765 143.4V145.4ZM238.917 142.691C239.54 141.133 239.821 139.045 239.821 136.496H237.821C237.821 138.939 237.546 140.733 237.06 141.949L238.917 142.691ZM239.821 136.496V92.816H237.821V136.496H239.821ZM239.821 92.816C239.821 90.7934 239.534 89.0711 238.893 87.7102L237.084 88.5618C237.553 89.5583 237.821 90.9559 237.821 92.816H239.821ZM238.921 87.7735C238.606 86.9656 238.089 86.3126 237.359 85.8745C236.642 85.4443 235.791 85.264 234.869 85.264V87.264C235.54 87.264 236.007 87.3957 236.33 87.5895C236.64 87.7754 236.885 88.0584 237.056 88.4984L238.921 87.7735ZM234.869 85.264C233.083 85.264 231.633 85.9631 230.68 87.4023C229.776 88.7689 229.397 90.6921 229.397 93.024H231.397C231.397 90.8492 231.762 89.3924 232.349 88.5057C232.887 87.6915 233.672 87.264 234.869 87.264V85.264ZM229.397 93.024V136.6H231.397V93.024H229.397ZM229.397 136.6C229.397 139.217 229.71 141.335 230.429 142.852L232.236 141.996C231.707 140.878 231.397 139.113 231.397 136.6H229.397ZM230.429 142.852C230.818 143.675 231.393 144.331 232.16 144.773C232.918 145.209 233.802 145.4 234.765 145.4V143.4C234.063 143.4 233.543 143.261 233.157 143.039C232.78 142.822 232.471 142.491 232.236 141.996L230.429 142.852ZM272.863 160H271.863V161H272.863V160ZM272.863 70.664V69.664H271.863V70.664H272.863ZM290.751 70.664H291.751V69.664H290.751V70.664ZM290.751 144.816H289.751V145.816H290.751V144.816ZM309.159 144.816H310.159V143.816H309.159V144.816ZM309.159 160V161H310.159V160H309.159ZM273.863 160V70.664H271.863V160H273.863ZM272.863 71.664H290.751V69.664H272.863V71.664ZM289.751 70.664V144.816H291.751V70.664H289.751ZM290.751 145.816H309.159V143.816H290.751V145.816ZM308.159 144.816V160H310.159V144.816H308.159ZM309.159 159H272.863V161H309.159V159ZM356.254 160H355.254V161H356.254V160ZM356.254 70.664V69.664H355.254V70.664H356.254ZM374.142 70.664H375.142V69.664H374.142V70.664ZM374.142 144.816H373.142V145.816H374.142V144.816ZM392.55 144.816H393.55V143.816H392.55V144.816ZM392.55 160V161H393.55V160H392.55ZM357.254 160V70.664H355.254V160H357.254ZM356.254 71.664H374.142V69.664H356.254V71.664ZM373.142 70.664V144.816H375.142V70.664H373.142ZM374.142 145.816H392.55V143.816H374.142V145.816ZM391.55 144.816V160H393.55V144.816H391.55ZM392.55 159H356.254V161H392.55V159ZM405.598 160H404.598V161H405.598V160ZM405.598 70.664V69.664H404.598V70.664H405.598ZM422.862 70.664H423.862V69.664H422.862V70.664ZM422.862 160V161H423.862V160H422.862ZM406.598 160V70.664H404.598V160H406.598ZM405.598 71.664H422.862V69.664H405.598V71.664ZM421.862 70.664V160H423.862V70.664H421.862ZM422.862 159H405.598V161H422.862V159ZM438.832 70.664V69.664H437.832V70.664H438.832ZM477.208 75.448L476.469 76.1223L476.477 76.1309L477.208 75.448ZM472.528 110.288L472.265 109.323L468.638 110.312L472.277 111.256L472.528 110.288ZM480.432 117.048L481.35 116.652L481.35 116.652L480.432 117.048ZM478.456 152.72L479.319 153.225L479.322 153.22L478.456 152.72ZM438.832 160H437.832V161H438.832V160ZM463.064 102.592L463.958 103.039L463.964 103.029L463.969 103.018L463.064 102.592ZM456.304 84.392V83.392H455.304V84.392H456.304ZM456.304 104.256H455.304V105.256H456.304V104.256ZM458.072 144.296L458.013 145.294L458.043 145.296H458.072V144.296ZM463.792 120.376L462.916 120.858L462.925 120.874L462.935 120.89L463.792 120.376ZM456.304 118.296V117.296H455.304V118.296H456.304ZM456.304 144.192H455.304V145.135L456.245 145.19L456.304 144.192ZM438.832 71.664H463.064V69.664H438.832V71.664ZM463.064 71.664C469.443 71.664 473.826 73.2267 476.47 76.1223L477.946 74.7737C474.766 71.2907 469.719 69.664 463.064 69.664V71.664ZM476.477 76.1309C479.203 79.0463 480.68 83.9356 480.68 91.048H482.68C482.68 83.7391 481.176 78.2284 477.939 74.7651L476.477 76.1309ZM480.68 91.048V95H482.68V91.048H480.68ZM480.68 95C480.68 99.1575 479.934 102.365 478.534 104.704C477.15 107.015 475.084 108.554 472.265 109.323L472.791 111.253C476.073 110.358 478.583 108.516 480.25 105.732C481.9 102.975 482.68 99.3704 482.68 95H480.68ZM472.277 111.256C475.724 112.15 478.111 114.193 479.514 117.444L481.35 116.652C479.702 112.831 476.82 110.368 472.779 109.32L472.277 111.256ZM479.514 117.444C480.965 120.808 481.72 125.337 481.72 131.088H483.72C483.72 125.191 482.95 120.36 481.35 116.652L479.514 117.444ZM481.72 131.088C481.72 140.515 480.304 147.52 477.59 152.22L479.322 153.22C482.293 148.075 483.72 140.658 483.72 131.088H481.72ZM477.593 152.215C474.987 156.665 470.257 159 463.064 159V161C470.709 161 476.24 158.482 479.319 153.225L477.593 152.215ZM463.064 159H438.832V161H463.064V159ZM439.832 160V70.664H437.832V160H439.832ZM459.944 105.256C461.743 105.256 463.192 104.572 463.958 103.039L462.17 102.145C461.827 102.831 461.195 103.256 459.944 103.256V105.256ZM463.969 103.018C464.613 101.65 464.896 99.8531 464.896 97.704H462.896C462.896 99.7149 462.625 101.177 462.159 102.166L463.969 103.018ZM464.896 97.704V88.76H462.896V97.704H464.896ZM464.896 88.76C464.896 87.1788 464.551 85.8062 463.684 84.823C462.797 83.8156 461.52 83.392 460.048 83.392V85.392C461.141 85.392 461.788 85.6964 462.184 86.145C462.6 86.6178 462.896 87.4292 462.896 88.76H464.896ZM460.048 83.392H456.304V85.392H460.048V83.392ZM455.304 84.392V104.256H457.304V84.392H455.304ZM456.304 105.256H459.944V103.256H456.304V105.256ZM458.072 145.296C460.538 145.296 462.573 144.708 463.989 143.355C465.414 141.994 466.04 140.025 466.04 137.64H464.04C464.04 139.693 463.505 141.051 462.607 141.909C461.701 142.775 460.252 143.296 458.072 143.296V145.296ZM466.04 137.64V126.512H464.04V137.64H466.04ZM466.04 126.512C466.04 123.735 465.618 121.476 464.65 119.862L462.935 120.89C463.63 122.05 464.04 123.881 464.04 126.512H466.04ZM464.668 119.894C463.68 118.098 461.892 117.296 459.632 117.296V119.296C461.393 119.296 462.378 119.88 462.916 120.858L464.668 119.894ZM459.632 117.296H456.304V119.296H459.632V117.296ZM455.304 118.296V144.192H457.304V118.296H455.304ZM456.245 145.19L458.013 145.294L458.131 143.298L456.363 143.194L456.245 145.19ZM497.438 70.664V69.664H496.438V70.664H497.438ZM534.982 73.68L534.333 74.4408L534.345 74.451L534.357 74.4609L534.982 73.68ZM539.87 82L538.895 82.2249L538.896 82.229L539.87 82ZM539.142 107.48L538.234 107.06L538.234 107.06L539.142 107.48ZM532.278 113.408L531.955 112.461L528.47 113.648L532.077 114.388L532.278 113.408ZM538.102 117.464L537.225 117.945L537.231 117.956L537.237 117.966L538.102 117.464ZM539.974 126.2L540.974 126.206V126.2H539.974ZM539.766 160V161H540.759L540.766 160.006L539.766 160ZM522.294 160H521.294V161H522.294V160ZM520.838 120.272L521.419 119.458L521.419 119.458L520.838 120.272ZM515.534 119.232V118.232H514.534V119.232H515.534ZM515.534 160V161H516.534V160H515.534ZM497.438 160H496.438V161H497.438V160ZM523.334 90.32L522.349 90.4938L522.349 90.4938L523.334 90.32ZM522.19 87.928L521.531 88.6806L521.559 88.7054L521.59 88.728L522.19 87.928ZM515.638 87.2V86.2H514.638V87.2H515.638ZM515.638 103.736H514.638V104.736H515.638V103.736ZM497.438 71.664H524.894V69.664H497.438V71.664ZM524.894 71.664C529.12 71.664 532.218 72.6373 534.333 74.4408L535.631 72.9192C533.03 70.7013 529.403 69.664 524.894 69.664V71.664ZM534.357 74.4609C536.576 76.236 538.104 78.7955 538.895 82.2249L540.844 81.7751C539.971 77.9938 538.241 75.0066 535.606 72.8991L534.357 74.4609ZM538.896 82.229C539.704 85.6616 540.118 90.1186 540.118 95.624H542.118C542.118 90.0361 541.699 85.4103 540.843 81.771L538.896 82.229ZM540.118 95.624C540.118 100.619 539.464 104.405 538.234 107.06L540.049 107.9C541.454 104.869 542.118 100.752 542.118 95.624H540.118ZM538.234 107.06C537.044 109.628 534.984 111.43 531.955 112.461L532.6 114.355C536.089 113.167 538.605 111.017 540.049 107.9L538.234 107.06ZM532.077 114.388C534.534 114.892 536.206 116.087 537.225 117.945L538.978 116.983C537.64 114.542 535.43 113.034 532.479 112.428L532.077 114.388ZM537.237 117.966C538.364 119.907 538.974 122.623 538.974 126.2H540.974C540.974 122.428 540.336 119.32 538.966 116.962L537.237 117.966ZM538.974 126.194L538.766 159.994L540.766 160.006L540.974 126.206L538.974 126.194ZM539.766 159H522.294V161H539.766V159ZM523.294 160V125.056H521.294V160H523.294ZM523.294 125.056C523.294 123.753 523.168 122.623 522.886 121.697C522.604 120.771 522.143 119.975 521.419 119.458L520.256 121.086C520.503 121.262 520.769 121.611 520.973 122.279C521.176 122.948 521.294 123.863 521.294 125.056H523.294ZM521.419 119.458C520.17 118.566 518.115 118.232 515.534 118.232V120.232C518.083 120.232 519.564 120.591 520.256 121.086L521.419 119.458ZM514.534 119.232V160H516.534V119.232H514.534ZM515.534 159H497.438V161H515.534V159ZM498.438 160V70.664H496.438V160H498.438ZM519.902 104.736C520.718 104.736 521.473 104.511 522.125 104.04C522.767 103.576 523.254 102.915 523.618 102.127C524.333 100.576 524.646 98.3734 524.646 95.624H522.646C522.646 98.2825 522.334 100.136 521.802 101.289C521.541 101.853 521.248 102.206 520.954 102.418C520.671 102.623 520.333 102.736 519.902 102.736V104.736ZM524.646 95.624C524.646 93.2529 524.542 91.4138 524.318 90.1462L522.349 90.4938C522.541 91.5836 522.646 93.2804 522.646 95.624H524.646ZM524.318 90.1462C524.096 88.885 523.652 87.7744 522.79 87.128L521.59 88.728C521.837 88.9136 522.155 89.3977 522.349 90.4938L524.318 90.1462ZM522.848 87.1754C522.048 86.4757 520.981 86.2 519.798 86.2V88.2C520.694 88.2 521.221 88.4096 521.531 88.6806L522.848 87.1754ZM519.798 86.2H515.638V88.2H519.798V86.2ZM514.638 87.2V103.736H516.638V87.2H514.638ZM515.638 104.736H519.902V102.736H515.638V104.736ZM553.448 160L552.453 159.904L552.347 161H553.448V160ZM562.08 70.664V69.664H561.172L561.085 70.5678L562.08 70.664ZM592.344 70.664L593.34 70.569L593.253 69.664H592.344V70.664ZM600.872 160V161H601.972L601.868 159.905L600.872 160ZM583.92 160L582.924 160.086L583.003 161H583.92V160ZM582.672 145.544L583.668 145.458L583.59 144.544H582.672V145.544ZM571.856 145.544V144.544H570.925L570.859 145.472L571.856 145.544ZM570.816 160V161H571.747L571.814 160.072L570.816 160ZM573.208 131.296L572.211 131.223L572.132 132.296H573.208V131.296ZM581.32 131.296V132.296H582.411L582.316 131.209L581.32 131.296ZM577.368 85.848L578.364 85.7614L578.285 84.848H577.368V85.848ZM576.536 85.848V84.848H575.607L575.539 85.775L576.536 85.848ZM554.443 160.096L563.075 70.7602L561.085 70.5678L552.453 159.904L554.443 160.096ZM562.08 71.664H592.344V69.664H562.08V71.664ZM591.349 70.759L599.877 160.095L601.868 159.905L593.34 70.569L591.349 70.759ZM600.872 159H583.92V161H600.872V159ZM584.916 159.914L583.668 145.458L581.676 145.63L582.924 160.086L584.916 159.914ZM582.672 144.544H571.856V146.544H582.672V144.544ZM570.859 145.472L569.819 159.928L571.814 160.072L572.854 145.616L570.859 145.472ZM570.816 159H553.448V161H570.816V159ZM573.208 132.296H581.32V130.296H573.208V132.296ZM582.316 131.209L578.364 85.7614L576.372 85.9346L580.324 131.383L582.316 131.209ZM577.368 84.848H576.536V86.848H577.368V84.848ZM575.539 85.775L572.211 131.223L574.205 131.369L577.533 85.921L575.539 85.775ZM615.157 70.664V69.664H614.157V70.664H615.157ZM652.701 73.68L652.052 74.4408L652.064 74.451L652.076 74.4609L652.701 73.68ZM657.589 82L656.614 82.2249L656.615 82.229L657.589 82ZM656.861 107.48L655.953 107.06L655.953 107.06L656.861 107.48ZM649.997 113.408L649.674 112.461L646.189 113.648L649.796 114.388L649.997 113.408ZM655.821 117.464L654.944 117.945L654.95 117.956L654.956 117.966L655.821 117.464ZM657.693 126.2L658.693 126.206V126.2H657.693ZM657.485 160V161H658.479L658.485 160.006L657.485 160ZM640.013 160H639.013V161H640.013V160ZM638.557 120.272L639.138 119.458L639.138 119.458L638.557 120.272ZM633.253 119.232V118.232H632.253V119.232H633.253ZM633.253 160V161H634.253V160H633.253ZM615.157 160H614.157V161H615.157V160ZM641.053 90.32L640.068 90.4938L640.068 90.4938L641.053 90.32ZM639.909 87.928L639.25 88.6806L639.279 88.7054L639.309 88.728L639.909 87.928ZM633.357 87.2V86.2H632.357V87.2H633.357ZM633.357 103.736H632.357V104.736H633.357V103.736ZM615.157 71.664H642.613V69.664H615.157V71.664ZM642.613 71.664C646.839 71.664 649.937 72.6373 652.052 74.4408L653.35 72.9192C650.749 70.7013 647.122 69.664 642.613 69.664V71.664ZM652.076 74.4609C654.295 76.236 655.823 78.7955 656.614 82.2249L658.563 81.7751C657.69 77.9938 655.96 75.0066 653.325 72.8991L652.076 74.4609ZM656.615 82.229C657.423 85.6616 657.837 90.1186 657.837 95.624H659.837C659.837 90.0361 659.418 85.4103 658.562 81.771L656.615 82.229ZM657.837 95.624C657.837 100.619 657.183 104.405 655.953 107.06L657.768 107.9C659.173 104.869 659.837 100.752 659.837 95.624H657.837ZM655.953 107.06C654.763 109.628 652.703 111.43 649.674 112.461L650.319 114.355C653.808 113.167 656.324 111.017 657.768 107.9L655.953 107.06ZM649.796 114.388C652.253 114.892 653.925 116.087 654.944 117.945L656.697 116.983C655.359 114.542 653.149 113.034 650.198 112.428L649.796 114.388ZM654.956 117.966C656.083 119.907 656.693 122.623 656.693 126.2H658.693C658.693 122.428 658.055 119.32 656.685 116.962L654.956 117.966ZM656.693 126.194L656.485 159.994L658.485 160.006L658.693 126.206L656.693 126.194ZM657.485 159H640.013V161H657.485V159ZM641.013 160V125.056H639.013V160H641.013ZM641.013 125.056C641.013 123.753 640.887 122.623 640.605 121.697C640.324 120.771 639.862 119.975 639.138 119.458L637.975 121.086C638.222 121.262 638.489 121.611 638.692 122.279C638.895 122.948 639.013 123.863 639.013 125.056H641.013ZM639.138 119.458C637.889 118.566 635.834 118.232 633.253 118.232V120.232C635.802 120.232 637.283 120.591 637.975 121.086L639.138 119.458ZM632.253 119.232V160H634.253V119.232H632.253ZM633.253 159H615.157V161H633.253V159ZM616.157 160V70.664H614.157V160H616.157ZM637.621 104.736C638.437 104.736 639.192 104.511 639.844 104.04C640.486 103.576 640.973 102.915 641.337 102.127C642.052 100.576 642.365 98.3734 642.365 95.624H640.365C640.365 98.2825 640.053 100.136 639.521 101.289C639.26 101.853 638.967 102.206 638.673 102.418C638.39 102.623 638.052 102.736 637.621 102.736V104.736ZM642.365 95.624C642.365 93.2529 642.261 91.4138 642.037 90.1462L640.068 90.4938C640.26 91.5836 640.365 93.2804 640.365 95.624H642.365ZM642.037 90.1462C641.815 88.885 641.371 87.7744 640.509 87.128L639.309 88.728C639.556 88.9136 639.874 89.3977 640.068 90.4938L642.037 90.1462ZM640.567 87.1754C639.768 86.4757 638.7 86.2 637.517 86.2V88.2C638.413 88.2 638.94 88.4096 639.25 88.6806L640.567 87.1754ZM637.517 86.2H633.357V88.2H637.517V86.2ZM632.357 87.2V103.736H634.357V87.2H632.357ZM633.357 104.736H637.621V102.736H633.357V104.736ZM684.375 160H683.375V161H684.375V160ZM684.375 130.568H685.375V130.451L685.348 130.337L684.375 130.568ZM670.127 70.664V69.664H668.861L669.154 70.8954L670.127 70.664ZM687.807 70.664L688.794 70.5012L688.656 69.664H687.807V70.664ZM692.799 100.928L691.813 101.091L693.786 101.091L692.799 100.928ZM697.791 70.664V69.664H696.943L696.805 70.5012L697.791 70.664ZM715.471 70.664L716.444 70.8954L716.737 69.664H715.471V70.664ZM701.223 130.568L700.25 130.337L700.223 130.451V130.568H701.223ZM701.223 160V161H702.223V160H701.223ZM685.375 160V130.568H683.375V160H685.375ZM685.348 130.337L671.1 70.4326L669.154 70.8954L683.402 130.799L685.348 130.337ZM670.127 71.664H687.807V69.664H670.127V71.664ZM686.821 70.8267L691.813 101.091L693.786 100.765L688.794 70.5012L686.821 70.8267ZM693.786 101.091L698.778 70.8267L696.805 70.5012L691.813 100.765L693.786 101.091ZM697.791 71.664H715.471V69.664H697.791V71.664ZM714.498 70.4326L700.25 130.337L702.196 130.799L716.444 70.8954L714.498 70.4326ZM700.223 130.568V160H702.223V130.568H700.223ZM701.223 159H684.375V161H701.223V159Z" fill="black"/>
</g>
<defs>
<filter id="filter0_d" x="92.04" y="69.832" width="623.431" height="95" filterUnits="userSpaceOnUse" color-interpolation-filters="sRGB">
<feFlood flood-opacity="0" result="BackgroundImageFix"/>
<feColorMatrix in="SourceAlpha" type="matrix" values="0 0 0 0 0 0 0 0 0 0 0 0 0 0 0 0 0 0 127 0"/>
<feOffset dx="-9" dy="4"/>
<feColorMatrix type="matrix" values="0 0 0 0 0 0 0 0 0 0 0 0 0 0 0 0 0 0 1 0"/>
<feBlend mode="normal" in2="BackgroundImageFix" result="effect1_dropShadow"/>
<feBlend mode="normal" in="SourceGraphic" in2="effect1_dropShadow" result="shape"/>
</filter>
</defs>
</svg>
