<svg width="24" height="24" viewBox="0 0 24 24" fill="none" xmlns="http://www.w3.org/2000/svg">
<g id="times">
<mask id="mask0" mask-type="alpha" maskUnits="userSpaceOnUse" x="5" y="5" width="14" height="14">
<path id="times_2" fill-rule="evenodd" clip-rule="evenodd" d="M14.6062 12L18.5152 8.09102C18.9949 7.61133 18.9949 6.83359 18.5152 6.35352L17.6465 5.48477C17.1668 5.00508 16.3891 5.00508 15.909 5.48477L12 9.39375L8.09102 5.48477C7.61133 5.00508 6.83359 5.00508 6.35352 5.48477L5.48477 6.35352C5.00508 6.8332 5.00508 7.61094 5.48477 8.09102L9.39375 12L5.48477 15.909C5.00508 16.3887 5.00508 17.1664 5.48477 17.6465L6.35352 18.5152C6.8332 18.9949 7.61133 18.9949 8.09102 18.5152L12 14.6062L15.909 18.5152C16.3887 18.9949 17.1668 18.9949 17.6465 18.5152L18.5152 17.6465C18.9949 17.1668 18.9949 16.3891 18.5152 15.909L14.6062 12Z" fill="white"/>
</mask>
<g mask="url(#mask0)">
<g id="&#240;&#159;&#142;&#168; color">
<rect id="&#240;&#159;&#142;&#168; Color" width="24" height="24" fill="#FFBB00"/>
</g>
</g>
</g>
</svg>
