<svg width="24" height="24" viewBox="0 0 24 24" fill="none" xmlns="http://www.w3.org/2000/svg">
<g id="toolbox">
<mask id="mask0" mask-type="alpha" maskUnits="userSpaceOnUse" x="2" y="3" width="20" height="18">
<path id="toolbox_2" fill-rule="evenodd" clip-rule="evenodd" d="M21.634 10.384L19.8664 8.61641C19.632 8.38203 19.3141 8.25039 18.9824 8.25039H17V5.125C17 4.08945 16.1605 3.25 15.125 3.25H8.875C7.83945 3.25 7 4.08945 7 5.125V8.25H5.01758C4.68594 8.25 4.36836 8.38164 4.13359 8.61602L2.36602 10.384C2.13164 10.6184 2 10.9363 2 11.268V14.5H7V13.875C7 13.5297 7.27969 13.25 7.625 13.25H8.875C9.22031 13.25 9.5 13.5297 9.5 13.875V14.5H14.5V13.875C14.5 13.5297 14.7797 13.25 15.125 13.25H16.375C16.7203 13.25 17 13.5297 17 13.875V14.5H22V11.2676C22 10.9363 21.8684 10.6184 21.634 10.384ZM14.5 8.25H9.5V5.75H14.5V8.25ZM16.375 17C16.7203 17 17 16.7203 17 16.375V15.75H22V19.5C22 20.1902 21.4402 20.75 20.75 20.75H3.25C2.55977 20.75 2 20.1902 2 19.5V15.75H7V16.375C7 16.7203 7.27969 17 7.625 17H8.875C9.22031 17 9.5 16.7203 9.5 16.375V15.75H14.5V16.375C14.5 16.7203 14.7797 17 15.125 17H16.375Z" fill="white"/>
</mask>
<g mask="url(#mask0)">
<g id="&#240;&#159;&#142;&#168; color">
<rect id="&#240;&#159;&#142;&#168; Color" width="24" height="24" fill="white"/>
</g>
</g>
</g>
</svg>
